<?xml version="1.0"?>
<svg width="370" height="370" xmlns="http://www.w3.org/2000/svg" xmlns:svg="http://www.w3.org/2000/svg" enable-background="new 0 0 500 500" version="1.1" xml:space="preserve">
 <!-- Created with SVG-edit - https://github.com/SVG-Edit/svgedit-->
 <g class="layer">
  <title>Layer 1</title>
  <g id="svg_1">
   <g id="svg_2">
    <g id="svg_3">
     <g id="svg_4">
      <g id="svg_5">
       <path d="m181.68,218.74c-2.72,-2.27 -16.12,-12.31 -20.12,-17.45c-2.1,-2.7 -3.78,-12.32 -9.77,-14.35c-6.57,-2.23 -12.79,6.2 -14.9,11.13c-1.29,3.01 -1.51,8.67 1.66,14.94c3.18,6.27 3.92,13.04 7.89,21.23c3.97,8.18 14.04,18.19 14.04,18.19l21.2,-33.69z" fill="#FFC727" id="svg_6"/>
       <path d="m181.68,218.74c-2.72,-2.27 -16.12,-12.31 -20.12,-17.45c-2.1,-2.7 -3.78,-12.32 -9.77,-14.35c-6.57,-2.23 -12.79,6.2 -14.9,11.13c-1.29,3.01 -1.51,8.67 1.66,14.94c3.18,6.27 3.92,13.04 7.89,21.23c3.97,8.18 14.04,18.19 14.04,18.19l21.2,-33.69z" fill="#FFFFFF" id="svg_7" opacity="0.5"/>
       <path d="m160.48,252.42c0,0 -3.96,-3.92 -7.87,-8.87l17.24,-34.34c4.91,4.15 10.23,8.19 11.83,9.54l-21.2,33.67z" id="svg_8" opacity="0.1"/>
      </g>
      <g id="svg_9">
       <path d="m146.12,192.64c-2.02,-0.83 -7.43,5.09 -8.06,8.28c-0.63,3.19 4.32,5.61 6.67,4.75c1.98,-0.73 2.08,-3.19 2.57,-7.01c0.36,-2.76 0.3,-5.4 -1.18,-6.02z" fill="#FF9BBC" id="svg_10"/>
       <path d="m144.87,191.41c1.21,0.7 2.9,-2.28 2.05,-2.87c-0.85,-0.6 -3.83,1.84 -2.05,2.87z" fill="#FF9BBC" id="svg_11"/>
       <path d="m148.17,192.24c1.44,0.59 2.73,-2.78 1.7,-3.3c-1.04,-0.53 -3.83,2.43 -1.7,3.3z" fill="#FF9BBC" id="svg_12"/>
       <path d="m148.95,196.77c1.63,0.66 3.04,-3.04 1.87,-3.63c-1.16,-0.6 -4.26,2.64 -1.87,3.63z" fill="#FF9BBC" id="svg_13"/>
       <path d="m142.02,193.97c1.07,0.21 2.1,-2.7 1.29,-3.08c-0.81,-0.37 -3.49,2.63 -1.29,3.08z" fill="#FF9BBC" id="svg_14"/>
      </g>
     </g>
     <g id="svg_15">
      <g id="svg_16">
       <path d="m153.45,251.49c-12.89,-8.53 -32,-4.44 -32,-4.44s-0.72,-6.34 -2.13,-8.79c-1.41,-2.45 -8.07,-4.06 -11.49,-0.1c-4.32,5 -11.83,21.37 -5.65,28.24c6.18,6.87 13.79,12.9 15.36,15.11c3.16,4.46 11.56,14.13 20.52,27.47l15.39,-57.49z" fill="#FFC727" id="svg_17"/>
       <path d="m153.45,251.49c-12.89,-8.53 -32,-4.44 -32,-4.44s-0.72,-6.34 -2.13,-8.79c-1.41,-2.45 -8.07,-4.06 -11.49,-0.1c-4.32,5 -11.83,21.37 -5.65,28.24c6.18,6.87 13.79,12.9 15.36,15.11c3.16,4.46 11.56,14.13 20.52,27.47l15.39,-57.49z" fill="#FFFFFF" id="svg_18" opacity="0.5"/>
      </g>
      <g id="svg_19">
       <path d="m110.07,242.79c-2.27,-0.65 -7.39,6.37 -7.69,9.88c-0.29,3.52 5.33,5.54 7.76,4.32c2.05,-1.03 1.86,-3.68 1.93,-7.86c0.05,-3.02 -0.32,-5.86 -2,-6.34z" fill="#FF9BBC" id="svg_20"/>
       <path d="m108.58,241.62c1.39,0.6 2.85,-2.81 1.86,-3.35c-0.99,-0.54 -3.9,2.45 -1.86,3.35z" fill="#FF9BBC" id="svg_21"/>
       <path d="m112.23,242.11c1.63,0.46 2.62,-3.32 1.44,-3.76c-1.18,-0.44 -3.84,3.07 -1.44,3.76z" fill="#FF9BBC" id="svg_22"/>
       <path d="m113.62,246.89c1.83,0.53 2.9,-3.63 1.58,-4.13c-1.33,-0.5 -4.28,3.36 -1.58,4.13z" fill="#FF9BBC" id="svg_23"/>
       <path d="m105.81,244.71c1.19,0.1 1.94,-3.16 1.03,-3.47c-0.92,-0.31 -3.45,3.25 -1.03,3.47z" fill="#FF9BBC" id="svg_24"/>
      </g>
      <path d="m138.06,308.98c-8.95,-13.34 -17.35,-23.01 -20.52,-27.47c-0.52,-0.74 -1.71,-1.89 -3.3,-3.36l33.35,-29.6c2.03,0.75 4.01,1.71 5.85,2.93l-15.38,57.5z" id="svg_25" opacity="0.1"/>
     </g>
     <g id="svg_26">
      <path d="m282.01,159.79c3.41,4.93 2.48,13.68 3.52,15.15c1.03,1.46 8.65,20.47 10.12,30.49c1.48,10.01 -4.49,18.78 -4.49,18.78s5.52,33.29 -6,71.66s-31.34,62.65 -47.85,68.17c-16.5,5.53 -34.39,2.27 -57.37,-13.21c-22.98,-15.48 -49.17,-44.55 -54.86,-61.66c-5.7,-17.11 32.58,-47.31 33.28,-47.86c0.71,-0.54 1.19,-7.49 17.09,-28.03c0,0 -7.03,-7.05 -6.86,-14.7c0.17,-7.65 7.92,-23.95 16.35,-35.31c0,0 0.71,-6.4 3.53,-10.07c2.81,-3.66 16.57,-14.66 22.72,-17.52s37.21,-0.06 44.28,2.02c7.06,2.07 21.02,14.1 26.54,22.09z" fill="#FFC727" id="svg_27"/>
      <path d="m282.01,159.79c3.41,4.93 2.48,13.68 3.52,15.15c1.03,1.46 8.65,20.47 10.12,30.49c1.48,10.01 -4.49,18.78 -4.49,18.78s5.52,33.29 -6,71.66s-31.34,62.65 -47.85,68.17c-16.5,5.53 -34.39,2.27 -57.37,-13.21c-22.98,-15.48 -49.17,-44.55 -54.86,-61.66c-5.7,-17.11 32.58,-47.31 33.28,-47.86c0.71,-0.54 1.19,-7.49 17.09,-28.03c0,0 -7.03,-7.05 -6.86,-14.7c0.17,-7.65 7.92,-23.95 16.35,-35.31c0,0 0.71,-6.4 3.53,-10.07c2.81,-3.66 16.57,-14.66 22.72,-17.52s37.21,-0.06 44.28,2.02c7.06,2.07 21.02,14.1 26.54,22.09z" fill="#FFFFFF" id="svg_28" opacity="0.5"/>
      <g id="svg_29" opacity="0.1">
       <path d="m175.45,213.28c3.92,2.78 7.77,5.48 11.26,8.81c-4.26,-2.18 -8.3,-5.03 -11.26,-8.81l0,0z" id="svg_30"/>
       <path d="m291.16,224.21c-1.5,2.5 -4.11,4.19 -6.85,5.13c2.04,-2.13 4.36,-3.6 6.85,-5.13l0,0z" id="svg_31"/>
      </g>
     </g>
     <g id="svg_32">
      <path d="m272.4,247.17c-15.08,-7.04 -27.49,-0.08 -31.34,2.72c-6.21,4.51 -8.03,6.64 -8.03,6.64s-17.86,-1.1 -30.44,10.86c-3.23,3.08 -0.32,13.42 6.06,14.56s21.36,-1.69 27.02,0.68c5.67,2.36 10.81,12.78 20.27,14.62c9.45,1.84 17.86,-4.7 17.86,-4.7l-1.4,-45.38z" fill="#FFC727" id="svg_33"/>
      <path d="m272.4,247.17c-15.08,-7.04 -27.49,-0.08 -31.34,2.72c-6.21,4.51 -8.03,6.64 -8.03,6.64s-17.86,-1.1 -30.44,10.86c-3.23,3.08 -0.32,13.42 6.06,14.56s21.36,-1.69 27.02,0.68c5.67,2.36 10.81,12.78 20.27,14.62c9.45,1.84 17.86,-4.7 17.86,-4.7l-1.4,-45.38z" fill="#FFFFFF" id="svg_34" opacity="0.5"/>
      <g id="svg_35">
       <path d="m208.91,274.26c-2.5,-1.77 -8.31,1.02 -6.85,4.3c0.2,-0.79 0.69,-1.23 1.2,-1.59c1.84,-1.13 3.56,-1.62 5.65,-2.71l0,0z" fill="#263238" id="svg_36"/>
       <path d="m207.54,268.85c-2.5,-1.76 -8.31,1.03 -6.85,4.31c0.2,-0.79 0.69,-1.23 1.2,-1.6c1.83,-1.13 3.56,-1.61 5.65,-2.71l0,0z" fill="#263238" id="svg_37"/>
      </g>
      <path d="m272.4,247.17c-12.57,-5.4 -27.1,-1.16 -36.91,7.76c-2.26,2 -4.5,4.4 -6.34,6.82c0.93,-1.89 2.05,-3.68 3.35,-5.36c8.94,-11.68 26.94,-17.82 39.9,-9.22l0,0z" fill="#263238" id="svg_38"/>
      <path d="m233.03,256.53c-9.96,-0.66 -19.86,3.34 -27.68,9.32c-0.92,0.73 -1.85,1.57 -2.61,2.47c-2.2,2.79 -0.57,6.72 1.31,9.34c0.7,0.93 1.53,1.76 2.46,2.36c0.75,0.55 1.97,0.67 3.17,0.79c2.41,0.2 4.92,0.15 7.42,0.09l7.53,-0.22c3.35,0.04 6.92,-0.39 10.22,0.7c3.98,1.86 6.97,5.3 9.98,8.3c3.42,3.51 7.36,6.74 12.39,7.24c4.89,0.68 10.03,0.01 14.6,-2.07c-5.5,3.04 -12.42,4.02 -18.51,2.32c-7.44,-2.32 -11.56,-9.71 -18.01,-13.51c-1.1,-0.62 -1.96,-0.89 -3.2,-0.96c-2.41,-0.2 -4.92,-0.13 -7.42,-0.06l-7.54,0.26c-3.5,-0.02 -7.21,0.31 -10.66,-0.73c-1.66,-0.69 -2.92,-2.02 -3.95,-3.38c-2.5,-3.39 -4.08,-9.09 -0.38,-12.29c8.26,-7.19 19.92,-11.51 30.88,-9.97l0,0z" fill="#263238" id="svg_39"/>
     </g>
     <g id="svg_40">
      <path d="m225.59,299.85c-25.56,-9.43 -49.64,8.81 -46.56,37.39c0,0 -17.52,1.12 -21.43,6.18c-3.92,5.05 0.53,15.34 5.53,17.2c4.99,1.85 19.47,-0.53 27.33,0.67c7.86,1.2 17.94,6.36 25.47,4.86c16.4,-3.27 29.03,-12.98 30.59,-33.19c1.12,-14.51 -6.98,-27.95 -20.93,-33.11z" fill="#FFC727" id="svg_41"/>
      <path d="m225.59,299.85c-25.56,-9.43 -49.64,8.81 -46.56,37.39c0,0 -17.52,1.12 -21.43,6.18c-3.92,5.05 0.53,15.34 5.53,17.2c4.99,1.85 19.47,-0.53 27.33,0.67c7.86,1.2 17.94,6.36 25.47,4.86c16.4,-3.27 29.03,-12.98 30.59,-33.19c1.12,-14.51 -6.98,-27.95 -20.93,-33.11z" fill="#FFFFFF" id="svg_42" opacity="0.5"/>
      <g id="svg_43">
       <g id="svg_44">
        <path d="m163.9,349.54c-2.49,-1.76 -8.3,1.03 -6.85,4.3c0.2,-0.78 0.69,-1.22 1.2,-1.59c1.84,-1.13 3.56,-1.61 5.65,-2.71l0,0z" fill="#263238" id="svg_45"/>
        <path d="m162.53,344.14c-2.49,-1.77 -8.3,1.03 -6.85,4.3c0.2,-0.79 0.69,-1.23 1.2,-1.59c1.84,-1.13 3.56,-1.62 5.65,-2.71l0,0z" fill="#263238" id="svg_46"/>
       </g>
       <path d="m165.21,339.48c4.26,-2.04 9.14,-2.67 13.82,-2.24c-4.63,0.96 -9.15,1.51 -13.82,2.24l0,0z" fill="#263238" id="svg_47"/>
       <path d="m229.03,298.53c-12.77,-2.25 -27.5,-1.5 -37.62,7.41c-5.03,4.22 -9.19,9.57 -11.19,15.83c-2.03,6.31 -1.83,13.23 0.08,19.59c-2.64,-6.17 -3.44,-13.35 -1.57,-20.04c1.78,-6.7 6.17,-12.47 11.38,-16.9c10.52,-9.21 26.11,-9.79 38.92,-5.89l0,0z" fill="#263238" id="svg_48"/>
      </g>
     </g>
     <g id="svg_49">
      <path d="m216.07,134.7c-4.15,-2.79 -12.72,-5.98 -14.71,-5.48c-2.55,0.64 -5.91,4.8 -17.36,12.46c-7.9,5.29 -17.13,7.75 -18.44,10.07c-1.31,2.32 0.78,5.05 1.58,15.93c0.43,5.91 -3.89,15.51 -2.92,16.43c0.97,0.91 12.01,-4.05 17.25,-12.87c5.24,-8.81 6.21,-16.95 6.21,-16.95s15.38,-13.01 17.6,-14.7c2.23,-1.68 10.79,-4.89 10.79,-4.89z" fill="#FFC727" id="svg_50"/>
      <path d="m216.07,134.7c-4.15,-2.79 -12.72,-5.98 -14.71,-5.48c-2.55,0.64 -5.91,4.8 -17.36,12.46c-7.9,5.29 -17.13,7.75 -18.44,10.07c-1.31,2.32 0.78,5.05 1.58,15.93c0.43,5.91 -3.89,15.51 -2.92,16.43c0.97,0.91 12.01,-4.05 17.25,-12.87c5.24,-8.81 6.21,-16.95 6.21,-16.95s15.38,-13.01 17.6,-14.7c2.23,-1.68 10.79,-4.89 10.79,-4.89z" id="svg_51" opacity="0.7"/>
     </g>
     <g id="svg_52">
      <path d="m257.27,138.37c4.52,-2.13 13.48,-3.97 15.37,-3.18c2.42,1.02 5.11,5.64 15.26,14.96c7.01,6.43 15.75,10.26 16.7,12.75c0.94,2.49 -1.54,4.87 -3.98,15.51c-1.33,5.77 1.48,15.92 0.38,16.67c-1.1,0.76 -11.25,-5.82 -15.09,-15.33c-3.84,-9.51 -3.56,-17.7 -3.56,-17.7s-13.23,-15.2 -15.17,-17.21c-1.93,-2 -9.91,-6.47 -9.91,-6.47z" fill="#FFC727" id="svg_53"/>
      <path d="m257.27,138.37c4.52,-2.13 13.48,-3.97 15.37,-3.18c2.42,1.02 5.11,5.64 15.26,14.96c7.01,6.43 15.75,10.26 16.7,12.75c0.94,2.49 -1.54,4.87 -3.98,15.51c-1.33,5.77 1.48,15.92 0.38,16.67c-1.1,0.76 -11.25,-5.82 -15.09,-15.33c-3.84,-9.51 -3.56,-17.7 -3.56,-17.7s-13.23,-15.2 -15.17,-17.21c-1.93,-2 -9.91,-6.47 -9.91,-6.47z" id="svg_54" opacity="0.7"/>
     </g>
     <g id="svg_55">
      <path d="m263.07,206.72c-0.45,4.46 -6.34,12.53 -12.18,12.49c-3.51,-0.03 -8.53,-2.79 -10.55,-6.29c0,0 -4.44,2.16 -10.46,1.59c-6.01,-0.64 -9.93,-3.64 -9.93,-3.64c-2.67,3.04 -8.15,4.74 -11.59,4.08c-5.73,-1.12 -9.91,-10.21 -9.46,-14.66c0.72,-7.13 13.27,-12.18 15.84,-14.81c2.54,-2.6 7.98,-8.73 18.82,-7.69c10.84,1.13 14.95,8.22 16.93,11.28c1.99,3.08 13.29,10.52 12.58,17.65z" id="svg_56" opacity="0.7"/>
      <g id="svg_57">
       <path d="m208.82,172.41c-4.3,0.71 -5.8,5.06 -4.98,8.61c0.78,3.35 3.74,5.09 7.2,4.58c3.15,-0.46 5.82,-4.14 4.65,-8.48c-1.09,-4.03 -4.5,-5.1 -6.87,-4.71z" fill="#263238" id="svg_58"/>
       <path d="m255.62,177.11c-4.3,0.71 -5.81,5.05 -4.98,8.6c0.78,3.35 3.74,5.09 7.19,4.58c3.15,-0.46 5.82,-4.14 4.65,-8.48c-1.08,-4.03 -4.49,-5.1 -6.86,-4.7z" fill="#263238" id="svg_59"/>
      </g>
      <g id="svg_60">
       <g id="svg_61">
        <path d="m199.03,181.13c-1.41,-0.87 -4.53,-1.24 -5.53,-1.03c-0.13,0.02 -0.2,0.17 -0.06,0.26c1.11,0.72 4.63,1.41 5.51,1.13c0.15,-0.04 0.24,-0.27 0.08,-0.36z" fill="#263238" id="svg_62"/>
        <path d="m200.14,184.02c-1.65,-0.16 -4.36,0.91 -5.03,1.54c-0.09,0.09 -0.05,0.25 0.11,0.27c1.33,0.15 4.55,-0.8 5.08,-1.44c0.09,-0.11 0.02,-0.36 -0.16,-0.37z" fill="#263238" id="svg_63"/>
        <path d="m201.93,186.41c-1.14,0.43 -2.39,2.18 -2.52,2.9c-0.02,0.09 0.08,0.21 0.2,0.17c0.93,-0.33 2.56,-2.16 2.6,-2.84c0.01,-0.12 -0.15,-0.28 -0.28,-0.23z" fill="#263238" id="svg_64"/>
       </g>
      </g>
      <g id="svg_65">
       <g id="svg_66">
        <path d="m266.75,187.92c1.55,-0.57 4.69,-0.31 5.63,0.08c0.11,0.05 0.15,0.21 0,0.27c-1.24,0.48 -4.82,0.46 -5.63,0.02c-0.14,-0.08 -0.18,-0.31 0,-0.37z" fill="#263238" id="svg_67"/>
        <path d="m265.09,190.53c1.64,0.18 4.09,1.76 4.62,2.51c0.07,0.1 0,0.25 -0.16,0.24c-1.33,-0.11 -4.3,-1.68 -4.69,-2.42c-0.07,-0.12 0.05,-0.35 0.23,-0.33z" fill="#263238" id="svg_68"/>
        <path d="m262.86,192.51c1.03,0.66 1.9,2.62 1.89,3.35c0,0.1 -0.12,0.19 -0.23,0.13c-0.84,-0.51 -2.08,-2.62 -1.98,-3.3c0.01,-0.12 0.21,-0.25 0.32,-0.18z" fill="#263238" id="svg_69"/>
       </g>
      </g>
      <g id="svg_70">
       <path d="m232.23,192.92c-1.86,-0.21 -6.61,-3.04 -7.98,-4.27c-1.38,-1.24 -1.2,-3.56 0.04,-4.51c0.82,-0.63 11.12,-1.04 16.75,1.71c1.6,0.78 0.77,3.31 0.42,3.64c-1.18,1.12 -7.05,3.68 -9.23,3.43z" fill="#263238" id="svg_71"/>
       <path d="m238.19,186.63c-0.07,0.96 -2.58,1.57 -5.6,1.35c-3.03,-0.22 -5.42,-1.18 -5.35,-2.15c0.07,-0.96 2.58,-1.57 5.6,-1.35c3.03,0.22 5.42,1.18 5.35,2.15z" fill="#37474F" id="svg_72"/>
      </g>
      <g id="svg_73">
       <path d="m222.83,159.09c-2.66,-0.78 -6.23,-2.88 -8.72,-1.04c-2.74,2.57 -5.68,4.91 -8.88,6.94c-2.95,1.91 -6.41,3.15 -9.63,4.41c-1.55,0.67 -3.08,1.38 -3.84,2.79c-0.81,1.39 -0.99,3.19 -0.9,4.93c-0.52,-1.68 -0.66,-3.56 0.02,-5.36c0.68,-1.81 2.44,-2.94 4.05,-3.78c3.23,-1.61 6.39,-2.79 9.25,-4.69c2.91,-1.8 5.7,-3.87 8.44,-5.98c3.12,-2.85 7.36,-0.03 10.21,1.78l0,0z" id="svg_74" opacity="0.2"/>
       <path d="m247.8,161.6c3.14,-1.22 7.86,-3.14 10.36,0.27c2.27,2.61 4.59,5.2 7.09,7.55c2.42,2.43 5.28,4.21 8.12,6.43c1.42,1.14 2.92,2.6 3.23,4.51c0.31,1.89 -0.21,3.71 -1.05,5.25c0.44,-1.69 0.61,-3.49 0.09,-5.01c-0.45,-1.53 -1.82,-2.54 -3.2,-3.5c-2.91,-1.87 -6.05,-3.77 -8.57,-6.23c-2.73,-2.63 -5.14,-5.5 -7.32,-8.57c-0.82,-1.08 -2.24,-1.27 -3.59,-1.28c-1.69,-0.01 -3.42,0.35 -5.16,0.58l0,0z" id="svg_75" opacity="0.2"/>
      </g>
      <g id="svg_76">
       <g id="svg_77">
        <path d="m238.56,195.67c-1.34,6.36 -3.32,9.22 -7.19,9.03c-3.88,-0.18 -5.57,-3.22 -6.3,-9.67l6.83,-1.42l6.66,2.06z" fill="#FF9BBC" id="svg_78"/>
        <path d="m231.9,193.61c0.38,2.7 0.26,5.39 -0.39,8.04c-0.39,-2.7 -0.25,-5.38 0.39,-8.04l0,0z" fill="#263238" id="svg_79"/>
       </g>
       <g id="svg_80">
        <path d="m209.06,187.96c2.12,3.01 4.92,5.76 8.44,6.88c2.52,0.14 5.14,-0.74 7.69,-1.26c1.91,-0.42 3.8,-0.92 5.77,-1.11c1.53,-0.06 3,0.51 4.34,0.93c3.04,1 6.14,2.52 9.12,3.34c1.9,0.39 4.09,-0.33 5.89,-1.11c1.94,-0.85 3.78,-2.03 5.31,-3.59c-1.81,2.79 -4.78,4.82 -7.94,5.89c-2.14,0.85 -4.75,0.27 -6.84,-0.52c-2.9,-0.93 -6.19,-2.4 -9.14,-2.92c-0.76,-0.14 -1.88,0.12 -2.92,0.3l-3.19,0.64c-2.75,0.42 -5.56,1.31 -8.46,0.81c-3.72,-1.44 -6.51,-4.74 -8.07,-8.28l0,0z" fill="#263238" id="svg_81"/>
       </g>
       <path d="m223.6,206.12c4.34,2.7 9.75,3.23 14.59,1.46c-4.22,3.17 -11.09,2.51 -14.59,-1.46l0,0z" fill="#263238" id="svg_82"/>
      </g>
      <path d="m209.94,222.83c12.55,4.23 25.99,5.47 39.09,3.37c-11.86,4.9 -28.22,3.4 -39.09,-3.37l0,0z" id="svg_83" opacity="0.2"/>
      <path d="m219.2,229.83c6.71,2.31 13.86,2.97 20.89,1.8c-6.68,2.57 -14.74,1.82 -20.89,-1.8l0,0z" id="svg_84" opacity="0.2"/>
     </g>
    </g>
    <g id="svg_85">
     <path d="m147.6,124.27c0.57,52.74 0.5,111.92 -0.23,164.66c-0.58,-52.74 -0.5,-111.92 0.23,-164.66l0,0z" fill="#263238" id="svg_86"/>
     <g id="svg_87">
      <g id="svg_88" opacity="0.8">
       <path d="m154.7,129.17c0,0 5.08,15.93 4.22,16.8c-0.86,0.87 -21.35,1.02 -21.79,0.16c-0.43,-0.86 3.11,-16.85 3.11,-16.85l14.46,-0.11z" fill="#455A64" id="svg_89"/>
       <path d="m146.99,1.95c34.74,-0.26 63.1,27.36 61.47,69.76c-1.63,42.41 -41.3,60.82 -58.77,60.95c-12.62,0.09 -62.85,-9.89 -63.24,-63.28c-0.34,-45.62 25.92,-67.17 60.54,-67.43z" fill="#455A64" id="svg_90"/>
      </g>
      <g id="svg_91">
       <path d="m195.97,58.83c-6.02,20.37 -27.41,32 -47.78,25.98c-20.38,-6.02 -32.01,-27.42 -25.99,-47.79c6.02,-20.37 27.42,-32 47.79,-25.98c20.37,6.02 32,27.41 25.98,47.79z" fill="#FFFFFF" id="svg_92" opacity="0.2"/>
       <path d="m184.25,43.93c-3.6,12.18 -16.39,19.14 -28.58,15.54c-12.18,-3.6 -19.14,-16.4 -15.54,-28.58s16.4,-19.14 28.58,-15.54c12.19,3.6 19.14,16.39 15.54,28.58z" fill="#FFFFFF" id="svg_93" opacity="0.4"/>
      </g>
     </g>
     <g id="svg_94">
      <g id="svg_95">
       <path d="m148.35,186.68c-5.82,0.81 -11.9,10 -12.22,14.3c-0.31,4.31 0.25,8.23 2.84,12.88l0.91,-4.39c0,0 8.1,4.23 12.73,-1.34c4.62,-5.57 7.22,-23.05 -4.26,-21.45z" fill="#FFC727" id="svg_96"/>
       <path d="m148.35,186.68c-5.82,0.81 -11.9,10 -12.22,14.3c-0.31,4.31 0.25,8.23 2.84,12.88l0.91,-4.39c0,0 8.1,4.23 12.73,-1.34c4.62,-5.57 7.22,-23.05 -4.26,-21.45z" fill="#FFFFFF" id="svg_97" opacity="0.5"/>
      </g>
      <g id="svg_98">
       <path d="m138,208.48c11.1,4.87 16.68,0.61 18.34,-10.89c0.31,-2.95 -0.05,-6.03 -1.52,-8.72c1.84,2.5 2.45,5.72 2.28,8.78c-0.32,4.58 -1.91,9.56 -5.79,12.36c-4.22,2.42 -9.49,0.77 -13.31,-1.53l0,0z" fill="#263238" id="svg_99"/>
       <path d="m139.88,209.47c0.07,0.99 -0.18,1.9 -0.76,2.71c-0.08,-0.99 0.18,-1.91 0.76,-2.71l0,0z" fill="#263238" id="svg_100"/>
      </g>
      <g id="svg_101">
       <path d="m148.41,201.86c3.04,-0.33 6.76,4.93 3.9,7.09c0.21,-0.79 -0.01,-1.41 -0.27,-1.98c-1.06,-1.88 -2.33,-3.14 -3.63,-5.11l0,0z" fill="#263238" id="svg_102"/>
       <path d="m151.61,195.67c3.04,-0.33 6.76,4.93 3.9,7.09c0.21,-0.79 -0.01,-1.41 -0.28,-1.98c-1.06,-1.88 -2.33,-3.14 -3.62,-5.11l0,0z" fill="#263238" id="svg_103"/>
      </g>
     </g>
    </g>
   </g>
  </g>
 </g>
</svg>